<svg width="15" height="14" viewBox="0 0 15 14" fill="none" xmlns="http://www.w3.org/2000/svg">
<path d="M7.72168 0.372375C7.60329 0.372443 7.48894 0.404554 7.38965 0.463195L7.29492 0.531555L7.29395 0.532531L0.693359 6.26105C0.592708 6.3486 0.512344 6.45703 0.457031 6.57843C0.401717 6.69986 0.373046 6.83171 0.373046 6.96515C0.373061 7.09858 0.401707 7.23044 0.457031 7.35187C0.512362 7.47327 0.592685 7.5817 0.693359 7.66925L0.694335 7.66925L7.33594 13.431L7.33691 13.43C7.43312 13.515 7.55418 13.5569 7.67187 13.5569L9.26953 13.5569C9.7472 13.5569 9.95998 12.9689 9.60644 12.6595L9.60547 12.6585L4.24023 8.00128L13.4648 8.00128C13.7474 8.00122 13.9773 7.77206 13.9775 7.48956L13.9775 6.44073C13.9774 6.15814 13.7474 5.9281 13.4648 5.92804L4.23926 5.92804L9.60352 1.27179L9.60352 1.27081C9.96168 0.960705 9.74173 0.372646 9.26855 0.372375L7.72168 0.372375Z" fill="#363636" stroke="#363636" stroke-width="0.745423"/>
</svg>
